<svg xmlns="http://www.w3.org/2000/svg" viewBox="0 0 900 1280" role="img" aria-label="Festival Foundry card">
  <defs>
    <linearGradient id="bg" x1="0" y1="0" x2="1" y2="1"><stop offset="0%" stop-color="#32104c"/><stop offset="58%" stop-color="#ec4899"/><stop offset="100%" stop-color="#050816"/></linearGradient>
    <radialGradient id="glow" cx="72%" cy="18%" r="60%"><stop offset="0%" stop-color="#22d3ee" stop-opacity="0.85"/><stop offset="100%" stop-color="#22d3ee" stop-opacity="0"/></radialGradient>
  </defs>
  <rect width="900" height="1280" rx="44" fill="url(#bg)"/>
  <rect width="900" height="1280" fill="url(#glow)" opacity="0.85"/>
  
        <path d="M0 973 C 198 742, 342 1050, 504 794 S 756 998, 900 717 L 900 1280 L0 1280 Z" fill="#14532d"/>
        <g fill="#38bdf8"><circle cx="216" cy="794" r="102"/><circle cx="378" cy="691" r="128"/><circle cx="576" cy="794" r="115"/></g>
        <line x1="126" y1="230" x2="126" y2="435" stroke="#fff7ed" stroke-width="13" stroke-linecap="round"/>
        <circle cx="738" cy="256" r="64" fill="#22d3ee" opacity="0.75"/>
        
  <rect x="0" y="922" width="900" height="358" fill="rgba(3,7,18,0.72)"/>
  <text x="72" y="153" fill="#fff7ed" font-family="Trebuchet MS, Segoe UI, sans-serif" font-size="90" font-weight="900" letter-spacing="6">FESTIVAL</text><text x="72" y="261" fill="#fff7ed" font-family="Trebuchet MS, Segoe UI, sans-serif" font-size="90" font-weight="900" letter-spacing="6">FOUNDRY</text><text x="72" y="452" fill="rgba(255,255,255,0.8)" font-family="Trebuchet MS, Segoe UI, sans-serif" font-size="36" font-weight="600">Build giant parade creatures</text><text x="72" y="503" fill="rgba(255,255,255,0.8)" font-family="Trebuchet MS, Segoe UI, sans-serif" font-size="36" font-weight="600">and set the whole city</text><text x="72" y="554" fill="rgba(255,255,255,0.8)" font-family="Trebuchet MS, Segoe UI, sans-serif" font-size="36" font-weight="600">dancing.</text>
  <text x="72" y="1178" fill="rgba(255,255,255,0.86)" font-family="Trebuchet MS, Segoe UI, sans-serif" font-size="33" font-weight="700" letter-spacing="4">GAME</text>
</svg>